<?xml version="1.0" encoding="utf-8"?>
<!-- Generator: Adobe Illustrator 24.0.1, SVG Export Plug-In . SVG Version: 6.00 Build 0)  -->
<svg version="1.1" id="Layer_1" xmlns="http://www.w3.org/2000/svg" xmlns:xlink="http://www.w3.org/1999/xlink" x="0px" y="0px"
	 viewBox="0 0 100 100" style="enable-background:new 0 0 100 100;" xml:space="preserve">
<style type="text/css">
	.st0{fill:#FFFFFF;}
	.st1{fill:#FD9E2B;}
</style>
<circle class="st0" cx="50" cy="50" r="50"/>
<path class="st1" d="M88.3,41.3L88.3,41.3L74.8,25.6c-0.6-0.7-1.8-1.2-3-1.2H28.2c-1.3,0-2.4,0.4-3,1.2L11.6,41.3l0,0
	c-0.1,0.2-0.3,0.4-0.3,0.6V71c0,2.6,3.1,4.7,7,4.7h63.2c3.9,0,7-2.1,7-4.7V41.9C88.6,41.6,88.5,41.5,88.3,41.3z M50,49.3
	c-4.9,0-8.8-3.8-9.1-8.6H20.2l10-11.6h39.5l10,11.6H59.1C58.8,45.5,54.9,49.3,50,49.3z"/>
</svg>
