<?xml version="1.0" encoding="utf-8"?>
<!-- Generator: Adobe Illustrator 24.0.1, SVG Export Plug-In . SVG Version: 6.00 Build 0)  -->
<svg version="1.1" id="Layer_1" xmlns="http://www.w3.org/2000/svg" xmlns:xlink="http://www.w3.org/1999/xlink" x="0px" y="0px"
	 viewBox="0 0 512 512" style="enable-background:new 0 0 512 512;" xml:space="preserve">
<style type="text/css">
	.st0{fill:#1C87FB;}
	.st1{fill:#FAFAFA;}
</style>
<path class="st0" d="M256,0C114.8,0,0,114.8,0,256s114.8,256,256,256s256-114.8,256-256S397.2,0,256,0z"/>
<path class="st1" d="M418,187L241.8,363.3c-5.3,5.3-12.2,8-19.2,8s-13.9-2.7-19.2-8l-88.1-88.1c-10.6-10.6-10.6-27.7,0-38.3
	s27.7-10.6,38.3,0l69,69l157.1-157.1c10.6-10.6,27.7-10.6,38.3,0C428.7,159.3,428.7,176.4,418,187z"/>
</svg>
