<?xml version="1.0" encoding="utf-8"?>
<!-- Generator: Adobe Illustrator 24.0.1, SVG Export Plug-In . SVG Version: 6.00 Build 0)  -->
<svg version="1.1" id="Layer_1" xmlns="http://www.w3.org/2000/svg" xmlns:xlink="http://www.w3.org/1999/xlink" x="0px" y="0px"
	 viewBox="0 0 512 512" style="enable-background:new 0 0 512 512;" xml:space="preserve">
<style type="text/css">
	.st0{fill:#727E87;}
	.st1{fill:#FFFFFF;}
</style>
<circle class="st0" cx="256" cy="256" r="256"/>
<g>
	<g>
		<path class="st1" d="M256,72C154.5,72,72,154.5,72,256s82.5,184,184,184s184-82.5,184-184S357.5,72,256,72z M256,408.9
			c-84.3,0-152.9-68.6-152.9-152.9S171.7,103.1,256,103.1S408.9,171.7,408.9,256S340.3,408.9,256,408.9z"/>
	</g>
</g>
<g>
	<g>
		<path class="st1" d="M339.4,250.3h-72.6V141.8c0-8.6-7-15.5-15.5-15.5c-8.6,0-15.5,7-15.5,15.5v124c0,8.6,7,15.5,15.5,15.5
			c0.2,0,0.3,0,0.5,0c0.2,0,0.3,0,0.5,0h87.1c8.6,0,15.5-7,15.5-15.5C355,257.3,348,250.3,339.4,250.3z"/>
	</g>
</g>
</svg>
