<?xml version="1.0" encoding="utf-8"?>
<!-- Generator: Adobe Illustrator 24.0.1, SVG Export Plug-In . SVG Version: 6.00 Build 0)  -->
<svg version="1.1" id="Layer_1" xmlns="http://www.w3.org/2000/svg" xmlns:xlink="http://www.w3.org/1999/xlink" x="0px" y="0px"
	 viewBox="0 0 136 136" style="enable-background:new 0 0 136 136;" xml:space="preserve">
<style type="text/css">
	.st0{fill:#B4B4B4;}
	.st1{fill:#35353B;}
</style>
<circle class="st0" cx="68" cy="68" r="68"/>
<g id="surface1">
	<path class="st1" d="M60.3,83.6C74,93.3,93,90,102.7,76.3s6.4-32.6-7.2-42.3c-13.7-9.7-32.6-6.4-42.3,7.2c-6.9,9.8-7.4,22.7-1.4,33
		L29.5,96.6c-2.5,2.4-2.6,6.4-0.2,9c2.4,2.5,6.4,2.6,9,0.2c0.1-0.1,0.2-0.2,0.2-0.2L60.3,83.6z M58.3,58.8
		c0-10.8,8.8-19.6,19.6-19.6S97.5,48,97.5,58.8S88.8,78.4,78,78.4C67.1,78.4,58.3,69.6,58.3,58.8L58.3,58.8z"/>
</g>
</svg>
