<?xml version="1.0" encoding="utf-8"?>
<!-- Generator: Adobe Illustrator 24.0.1, SVG Export Plug-In . SVG Version: 6.00 Build 0)  -->
<svg version="1.1" id="Layer_1" xmlns="http://www.w3.org/2000/svg" xmlns:xlink="http://www.w3.org/1999/xlink" x="0px" y="0px"
	 viewBox="0 0 512 512" style="enable-background:new 0 0 512 512;" xml:space="preserve">
<style type="text/css">
	.st0{fill:#FC4741;}
	.st1{fill:#FFFFFF;}
</style>
<path class="st0" d="M256,0C114.8,0,0,114.8,0,256s114.8,256,256,256s256-114.8,256-256S397.2,0,256,0z"/>
<path class="st1" d="M283.1,418.9c0,15-12.2,27.1-27.1,27.1c-15,0-27.1-12.2-27.1-27.1c0-15,12.2-27.1,27.1-27.1
	C271,391.7,283.1,403.9,283.1,418.9z"/>
<path class="st1" d="M283.1,310.3c0,15-12.2,27.1-27.1,27.1c-15,0-27.1-12.2-27.1-27.1V93.1c0-15,12.2-27.1,27.1-27.1
	c15,0,27.1,12.2,27.1,27.1V310.3z"/>
</svg>
